<svg viewBox="0 0 24 24" xmlns="http://www.w3.org/2000/svg" fill="#ffffff">
  <!-- PLACEHOLDER — sostituisci con l'SVG Apple fornito (stesso path: /public/pay/apple.svg) -->
  <path d="M16.365 1.43c0 1.14-.42 2.2-1.11 2.98-.83.94-2.18 1.67-3.29 1.58-.14-1.09.42-2.24 1.05-2.95.75-.85 2.1-1.5 3.35-1.61zM20.5 17.06c-.6 1.38-.89 1.99-1.66 3.21-1.08 1.71-2.6 3.84-4.48 3.85-1.67.02-2.1-1.09-4.37-1.08-2.27.01-2.74 1.1-4.41 1.08-1.88-.02-3.32-1.94-4.4-3.65C-1.36 16.55-1.66 10.6.9 7.42 2.13 5.86 4.07 4.87 5.9 4.87c1.86 0 3.03 1.09 4.57 1.09 1.49 0 2.4-1.09 4.55-1.09 1.63 0 3.36.89 4.59 2.42-4.03 2.21-3.38 7.96.89 9.77z"/>
</svg>
