<svg width="32" height="32" viewBox="0 0 32 32" fill="none" xmlns="http://www.w3.org/2000/svg">
<g clip-path="url(#clip0_128_10477)">
<path d="M24 0H8C3.58172 0 0 3.58172 0 8V24C0 28.4183 3.58172 32 8 32H24C28.4183 32 32 28.4183 32 24V8C32 3.58172 28.4183 0 24 0Z" fill="#26550F"/>
<path d="M16.5 24.2162L15.8528 24.9205C16.2207 25.2585 16.7868 25.2565 17.1523 24.9158L16.5 24.2162ZM11.705 18.4189L10.8882 18.9166C11.0266 19.1437 11.2533 19.303 11.5139 19.3561C11.7746 19.4092 12.0455 19.3514 12.2618 19.1966L11.705 18.4189ZM19.1575 14.2829C19.5899 13.9795 19.6945 13.383 19.391 12.9506C19.0876 12.5182 18.4911 12.4137 18.0587 12.7171L18.6081 13.5L19.1575 14.2829ZM14.035 12.1205C13.5642 11.881 12.9884 12.0685 12.7489 12.5393C12.5094 13.0101 12.6968 13.5859 13.1677 13.8254L13.6014 12.973L14.035 12.1205ZM23 13.5H22.0435C22.0435 14.4554 21.7053 15.554 21.1283 16.7118C20.5565 17.8594 19.7837 18.9988 18.994 20.0181C18.2064 21.0344 17.4165 21.9127 16.8225 22.5374C16.526 22.8493 16.2797 23.0966 16.1086 23.2648C16.0231 23.3489 15.9565 23.4132 15.912 23.4558C15.8897 23.4771 15.8729 23.4929 15.8621 23.5032C15.8567 23.5083 15.8527 23.512 15.8503 23.5143C15.8491 23.5154 15.8483 23.5162 15.8479 23.5166C15.8476 23.5168 15.8475 23.5169 15.8475 23.5169C15.8475 23.5169 15.8475 23.5169 15.8475 23.5169C15.8476 23.5168 15.8477 23.5167 16.5 24.2162C17.1523 24.9158 17.1524 24.9156 17.1526 24.9154C17.1527 24.9154 17.1529 24.9152 17.1531 24.915C17.1535 24.9146 17.1539 24.9142 17.1545 24.9137C17.1556 24.9126 17.1572 24.9112 17.1591 24.9094C17.1629 24.9058 17.1683 24.9007 17.1752 24.8942C17.189 24.8812 17.2087 24.8625 17.234 24.8383C17.2847 24.7898 17.3578 24.7193 17.45 24.6286C17.6344 24.4472 17.8959 24.1846 18.2088 23.8555C18.8335 23.1984 19.6686 22.2705 20.506 21.1897C21.3413 20.1118 22.1935 18.8632 22.8404 17.565C23.4822 16.277 23.9565 14.8723 23.9565 13.5H23ZM10 13.5H10.9565C10.9565 10.4384 13.4384 7.95646 16.5 7.95646V7V6.04354C12.3819 6.04354 9.04354 9.38191 9.04354 13.5H10ZM16.5 7V7.95646C19.5616 7.95646 22.0435 10.4384 22.0435 13.5H23H23.9565C23.9565 9.38191 20.6181 6.04354 16.5 6.04354V7ZM11.705 18.4189L12.5217 17.9213C11.5794 16.3746 10.9565 14.8278 10.9565 13.5H10H9.04354C9.04354 15.356 9.8849 17.27 10.8882 18.9166L11.705 18.4189ZM11.705 18.4189L12.2618 19.1966L17.496 15.4488L16.9392 14.6711L16.3824 13.8934L11.1481 17.6413L11.705 18.4189ZM16.9392 14.6711L17.4886 15.454L19.1575 14.2829L18.6081 13.5L18.0587 12.7171L16.3898 13.8882L16.9392 14.6711ZM16.9392 14.6711L17.3729 13.8186L14.035 12.1205L13.6014 12.973L13.1677 13.8254L16.5055 15.5236L16.9392 14.6711ZM16.5 24.2162C17.1472 23.512 17.1472 23.512 17.1473 23.5121C17.1473 23.5121 17.1473 23.5121 17.1474 23.5121C17.1474 23.5122 17.1474 23.5122 17.1474 23.5122C17.1474 23.5122 17.1473 23.5121 17.1471 23.5119C17.1467 23.5115 17.1459 23.5108 17.1447 23.5097C17.1424 23.5076 17.1386 23.504 17.1333 23.4991C17.1228 23.4893 17.1064 23.474 17.0847 23.4535C17.0412 23.4125 16.9761 23.3505 16.8924 23.2693C16.725 23.1069 16.4836 22.8678 16.1927 22.5655C15.6098 21.96 14.8329 21.1064 14.0543 20.1128L13.3015 20.7027L12.5486 21.2926C13.3777 22.3506 14.2001 23.2538 14.8145 23.8921C15.1223 24.2118 15.3791 24.4664 15.5602 24.6421C15.6508 24.73 15.7225 24.7983 15.7723 24.8453C15.7972 24.8687 15.8166 24.8869 15.8302 24.8995C15.8369 24.9058 15.8423 24.9107 15.846 24.9142C15.8479 24.916 15.8495 24.9174 15.8506 24.9184C15.8512 24.9189 15.8516 24.9194 15.852 24.9197C15.8522 24.9199 15.8524 24.92 15.8525 24.9202C15.8526 24.9202 15.8526 24.9203 15.8527 24.9203C15.8528 24.9204 15.8528 24.9205 16.5 24.2162Z" fill="#A4E974"/>
</g>
<defs>
<clipPath id="clip0_128_10477">
<rect width="32" height="32" fill="white"/>
</clipPath>
</defs>
</svg>
