<svg width="135" height="42" viewBox="0 0 135 42" fill="none" xmlns="http://www.w3.org/2000/svg">
<path d="M15.5918 39L14.2386 40.4727C15.0079 41.1796 16.1916 41.1753 16.9558 40.4628L15.5918 39ZM5.56517 26.8776L3.85723 27.9182C4.14662 28.3932 4.62073 28.7262 5.1657 28.8373C5.71068 28.9483 6.2773 28.8275 6.72951 28.5037L5.56517 26.8776ZM21.1488 18.229C22.053 17.5945 22.2716 16.3472 21.6371 15.443C21.0027 14.5389 19.7554 14.3202 18.8512 14.9547L20 16.5918L21.1488 18.229ZM10.4375 13.7072C9.45301 13.2064 8.2489 13.5984 7.74804 14.5829C7.24718 15.5674 7.63924 16.7715 8.62373 17.2724L9.53061 15.4898L10.4375 13.7072ZM29.1837 16.5918H27.1837C27.1837 18.5897 26.4763 20.887 25.2699 23.3079C24.0741 25.7075 22.4582 28.0902 20.8068 30.2214C19.16 32.3467 17.5082 34.1832 16.2661 35.4896C15.6462 36.1416 15.1311 36.6587 14.7734 37.0106C14.5946 37.1864 14.4554 37.3208 14.3622 37.4099C14.3156 37.4544 14.2806 37.4876 14.2579 37.509C14.2466 37.5197 14.2384 37.5274 14.2333 37.5322C14.2308 37.5345 14.2291 37.5361 14.2282 37.537C14.2277 37.5374 14.2275 37.5376 14.2274 37.5377C14.2274 37.5377 14.2275 37.5376 14.2275 37.5376C14.2277 37.5374 14.2279 37.5372 15.5918 39C16.9558 40.4628 16.9561 40.4625 16.9565 40.4621C16.9567 40.4619 16.9571 40.4615 16.9575 40.4612C16.9583 40.4604 16.9593 40.4595 16.9604 40.4584C16.9628 40.4562 16.966 40.4532 16.97 40.4494C16.9781 40.4419 16.9893 40.4313 17.0037 40.4177C17.0325 40.3905 17.0738 40.3514 17.1268 40.3007C17.2327 40.1994 17.3855 40.052 17.5783 39.8623C17.9639 39.483 18.5107 38.9339 19.165 38.2457C20.4714 36.8717 22.2175 34.9314 23.9687 32.6714C25.7152 30.4175 27.4973 27.8066 28.85 25.092C30.1921 22.3988 31.1837 19.4614 31.1837 16.5918H29.1837ZM2 16.5918H4C4 10.1898 9.18984 5 15.5918 5V3V1C6.9807 1 0 7.9807 0 16.5918H2ZM15.5918 3V5C21.9938 5 27.1837 10.1898 27.1837 16.5918H29.1837H31.1837C31.1837 7.9807 24.203 1 15.5918 1V3ZM5.56517 26.8776L7.2731 25.8369C5.30252 22.6027 4 19.3682 4 16.5918H2H0C0 20.4729 1.75931 24.4751 3.85723 27.9182L5.56517 26.8776ZM5.56517 26.8776L6.72951 28.5037L17.6745 20.6668L16.5102 19.0407L15.3459 17.4145L4.40082 25.2514L5.56517 26.8776ZM16.5102 19.0407L17.659 20.6778L21.1488 18.229L20 16.5918L18.8512 14.9547L15.3614 17.4035L16.5102 19.0407ZM16.5102 19.0407L17.4171 17.2581L10.4375 13.7072L9.53061 15.4898L8.62373 17.2724L15.6033 20.8232L16.5102 19.0407ZM15.5918 39C16.9451 37.5273 16.9452 37.5275 16.9453 37.5276C16.9454 37.5276 16.9455 37.5277 16.9455 37.5277C16.9456 37.5278 16.9456 37.5278 16.9456 37.5278C16.9456 37.5278 16.9454 37.5276 16.9449 37.5272C16.9441 37.5264 16.9424 37.5249 16.94 37.5226C16.9351 37.5182 16.9271 37.5107 16.9161 37.5005C16.8941 37.48 16.8599 37.4481 16.8144 37.4052C16.7235 37.3194 16.5873 37.1898 16.4124 37.02C16.0623 36.6803 15.5576 36.1803 14.9492 35.5483C13.7303 34.282 12.1059 32.4972 10.4778 30.4195L8.90354 31.6531L7.32929 32.8866C9.06286 35.099 10.7826 36.9876 12.0674 38.3223C12.7109 38.9908 13.248 39.5231 13.6267 39.8906C13.8161 40.0744 13.9661 40.2172 14.0702 40.3154C14.1223 40.3645 14.1629 40.4024 14.1912 40.4288C14.2054 40.4419 14.2165 40.4522 14.2244 40.4596C14.2284 40.4632 14.2315 40.4662 14.2339 40.4683C14.2351 40.4694 14.2361 40.4703 14.2368 40.4711C14.2372 40.4714 14.2376 40.4717 14.2379 40.472C14.238 40.4721 14.2382 40.4723 14.2383 40.4724C14.2384 40.4725 14.2386 40.4727 15.5918 39Z" fill="#A4E974"/>
<path d="M47.0636 32V13.632H40.6636V9.6H57.9436V13.632H51.5436V32H47.0636ZM56.8386 32V15.36H61.0306V18.528C61.3079 17.3333 61.8733 16.4267 62.7266 15.808C63.5799 15.168 64.7319 14.8907 66.1826 14.976V19.04H65.5746C64.3373 19.04 63.2919 19.4347 62.4386 20.224C61.5853 21.0133 61.1586 22.1013 61.1586 23.488V32H56.8386ZM69.7638 13.984C69.0385 13.984 68.4198 13.7387 67.9078 13.248C67.4172 12.736 67.1718 12.128 67.1718 11.424C67.1718 10.7413 67.4172 10.1547 67.9078 9.664C68.4198 9.152 69.0385 8.896 69.7638 8.896C70.5105 8.896 71.1292 9.152 71.6198 9.664C72.1105 10.1547 72.3558 10.7413 72.3558 11.424C72.3558 12.1493 72.1105 12.7573 71.6198 13.248C71.1292 13.7387 70.5105 13.984 69.7638 13.984ZM67.6198 32V15.36H71.9398V32H67.6198ZM74.4948 38.4V15.36H78.7508V18.048C79.1988 17.1307 79.8282 16.3947 80.6388 15.84C81.4708 15.2853 82.6122 15.008 84.0628 15.008C85.2148 15.008 86.2815 15.2427 87.2628 15.712C88.2655 16.16 89.1402 16.7893 89.8868 17.6C90.6335 18.3893 91.2202 19.3173 91.6468 20.384C92.0735 21.4293 92.2868 22.5493 92.2868 23.744C92.2868 25.344 91.9135 26.8053 91.1668 28.128C90.4415 29.4293 89.4602 30.4747 88.2228 31.264C86.9855 32.032 85.5988 32.416 84.0628 32.416C82.6335 32.416 81.5135 32.16 80.7028 31.648C79.8922 31.1147 79.2628 30.4107 78.8148 29.536V38.4H74.4948ZM83.3588 28.512C84.2762 28.512 85.0762 28.288 85.7588 27.84C86.4628 27.392 87.0068 26.8053 87.3908 26.08C87.7748 25.3333 87.9668 24.544 87.9668 23.712C87.9668 22.8373 87.7748 22.0373 87.3908 21.312C87.0068 20.5867 86.4628 20.0107 85.7588 19.584C85.0762 19.136 84.2762 18.912 83.3588 18.912C82.4202 18.912 81.5988 19.136 80.8948 19.584C80.1908 20.032 79.6468 20.6187 79.2628 21.344C78.8788 22.0693 78.6868 22.8693 78.6868 23.744C78.6868 24.5973 78.8788 25.3867 79.2628 26.112C79.6468 26.8373 80.1908 27.424 80.8948 27.872C81.5988 28.2987 82.4202 28.512 83.3588 28.512ZM103.27 32.416C101.456 32.416 99.8669 32.0533 98.5016 31.328C97.1363 30.5813 96.0803 29.5573 95.3336 28.256C94.5869 26.9333 94.2136 25.4187 94.2136 23.712V9.6H98.6936V23.232C98.6936 24.8107 99.0669 26.0587 99.8136 26.976C100.582 27.872 101.734 28.32 103.27 28.32C104.806 28.32 105.947 27.872 106.694 26.976C107.462 26.0587 107.846 24.8107 107.846 23.232V9.6H112.326V23.712C112.326 25.4187 111.952 26.9333 111.206 28.256C110.459 29.5573 109.403 30.5813 108.038 31.328C106.694 32.0533 105.104 32.416 103.27 32.416ZM114.901 38.4V15.36H119.157V18.048C119.605 17.1307 120.234 16.3947 121.045 15.84C121.877 15.2853 123.018 15.008 124.469 15.008C125.621 15.008 126.688 15.2427 127.669 15.712C128.672 16.16 129.546 16.7893 130.293 17.6C131.04 18.3893 131.626 19.3173 132.053 20.384C132.48 21.4293 132.693 22.5493 132.693 23.744C132.693 25.344 132.32 26.8053 131.573 28.128C130.848 29.4293 129.866 30.4747 128.629 31.264C127.392 32.032 126.005 32.416 124.469 32.416C123.04 32.416 121.92 32.16 121.109 31.648C120.298 31.1147 119.669 30.4107 119.221 29.536V38.4H114.901ZM123.765 28.512C124.682 28.512 125.482 28.288 126.165 27.84C126.869 27.392 127.413 26.8053 127.797 26.08C128.181 25.3333 128.373 24.544 128.373 23.712C128.373 22.8373 128.181 22.0373 127.797 21.312C127.413 20.5867 126.869 20.0107 126.165 19.584C125.482 19.136 124.682 18.912 123.765 18.912C122.826 18.912 122.005 19.136 121.301 19.584C120.597 20.032 120.053 20.6187 119.669 21.344C119.285 22.0693 119.093 22.8693 119.093 23.744C119.093 24.5973 119.285 25.3867 119.669 26.112C120.053 26.8373 120.597 27.424 121.301 27.872C122.005 28.2987 122.826 28.512 123.765 28.512Z" fill="#26550F"/>
</svg>
