<svg width="16" height="16" viewBox="0 0 16 16" fill="none" xmlns="http://www.w3.org/2000/svg">
<path d="M10.4795 4.479C10.6156 4.479 10.8475 4.50065 11.1753 4.54395C11.5031 4.58724 11.8618 4.71094 12.2515 4.91504C12.6473 5.11296 13.006 5.44385 13.3276 5.90771C13.3091 5.92627 13.2194 5.9943 13.0586 6.11182C12.8978 6.22314 12.7184 6.39014 12.5205 6.61279C12.3226 6.82926 12.1494 7.10758 12.001 7.44775C11.8525 7.78174 11.7783 8.18066 11.7783 8.64453C11.7783 9.17643 11.8711 9.62793 12.0566 9.99902C12.2484 10.3701 12.4679 10.6701 12.7153 10.8989C12.9689 11.1216 13.1916 11.2855 13.3833 11.3906C13.5812 11.4958 13.6864 11.5514 13.6987 11.5576C13.6925 11.5824 13.6121 11.8019 13.4575 12.2163C13.3091 12.6307 13.0617 13.0915 12.7153 13.5986C12.4123 14.0378 12.0845 14.4429 11.7319 14.814C11.3856 15.1851 10.9681 15.3706 10.4795 15.3706C10.1517 15.3706 9.88265 15.3242 9.67236 15.2314C9.46208 15.1325 9.24561 15.0366 9.02295 14.9438C8.80029 14.8449 8.50033 14.7954 8.12305 14.7954C7.75814 14.7954 7.45199 14.8449 7.20459 14.9438C6.96338 15.0428 6.73145 15.1418 6.50879 15.2407C6.29232 15.3397 6.03564 15.3892 5.73877 15.3892C5.28727 15.3892 4.89144 15.2098 4.55127 14.8511C4.2111 14.4924 3.86165 14.0625 3.50293 13.5615C3.08854 12.9678 2.73291 12.2441 2.43604 11.3906C2.14535 10.5309 2 9.66504 2 8.79297C2 7.85905 2.17627 7.07666 2.52881 6.4458C2.88135 5.80876 3.33285 5.32943 3.8833 5.00781C4.43994 4.68001 5.01514 4.51611 5.60889 4.51611C5.92432 4.51611 6.22119 4.56868 6.49951 4.67383C6.77783 4.77279 7.0376 4.87484 7.27881 4.97998C7.5262 5.08512 7.74886 5.1377 7.94678 5.1377C8.13851 5.1377 8.36117 5.08203 8.61475 4.9707C8.86833 4.85938 9.15283 4.75114 9.46826 4.646C9.78369 4.53467 10.1208 4.479 10.4795 4.479ZM9.96924 3.30078C9.72803 3.59147 9.42497 3.83577 9.06006 4.03369C8.69515 4.22542 8.3488 4.32129 8.021 4.32129C7.95296 4.32129 7.88802 4.3151 7.82617 4.30273C7.81999 4.28418 7.8138 4.25016 7.80762 4.20068C7.80143 4.1512 7.79834 4.09863 7.79834 4.04297C7.79834 3.67188 7.87874 3.31315 8.03955 2.9668C8.20036 2.61426 8.38281 2.32357 8.58691 2.09473C8.84668 1.78548 9.17448 1.52881 9.57031 1.32471C9.96615 1.12061 10.3434 1.01237 10.7021 1C10.7207 1.0804 10.73 1.17627 10.73 1.2876C10.73 1.65869 10.6589 2.02051 10.5166 2.37305C10.3743 2.7194 10.1919 3.02865 9.96924 3.30078Z" fill="white"/>
</svg>
